A01_T0018_GRF_2plates.mot
version=1
nRows=46
nColumns=19
inDegrees=yes
endheader
time	ground_force_vx	ground_force_vy	ground_force_vz	ground_force_px	ground_force_py	ground_force_pz	1_ground_force_vx	1_ground_force_vy	1_ground_force_vz	1_ground_force_px	1_ground_force_py	1_ground_force_pz	ground_torque_x	ground_torque_y	ground_torque_z	1_ground_torque_x	1_ground_torque_y	1_ground_torque_z	
0.59354	172.25	920.66	73.265	-0.27443	0	0.26343	0	0	0	0	0	0	0	18.416	0	0	0	0
0.59396	172.75	921.36	73.283	-0.27444	0	0.26351	0	0	0	0	0	0	0	18.465	0	0	0	0
0.59438	173.05	919.41	72.842	-0.27415	0	0.26342	-5.4181	13.96	0.47862	0.28493	0	0.48586	0	18.517	0	0	0.71884	0
0.59479	173.51	918.7	72.971	-0.27407	0	0.26334	-10.329	22.237	1.0009	0.28096	0	0.47341	0	18.508	0	0	1.3436	0
0.59521	173.92	917.2	73.035	-0.27385	0	0.26328	-14.257	29.084	0.88192	0.2784	0	0.45296	0	18.499	0	0	2.0131	0
0.59563	174.34	917.72	73.032	-0.27387	0	0.26334	-15.584	32.594	0.16867	0.25817	0	0.44751	0	18.525	0	0	2.5854	0
0.59604	174.82	917.8	73.006	-0.2739	0	0.26339	-14.387	32.931	-0.99249	0.2441	0	0.45615	0	18.586	0	0	2.8398	0
0.59646	175.12	916.83	72.962	-0.27379	0	0.26337	-12.414	32.936	-1.4554	0.26196	0	0.46545	0	18.56	0	0	2.7368	0
0.59688	175.69	915.24	72.938	-0.27362	0	0.26345	-11.487	33.203	-1.3582	0.26978	0	0.46796	0	18.599	0	0	2.394	0
0.59729	176.01	914.35	72.891	-0.27343	0	0.26338	-13.351	34.907	-1.0842	0.28901	0	0.46427	0	18.607	0	0	2.3259	0
0.59771	176.6	914.26	72.912	-0.27341	0	0.26343	-16.521	37.458	-0.66217	0.29992	0	0.45964	0	18.594	0	0	2.4563	0
0.59813	176.99	913.02	72.734	-0.27326	0	0.26343	-19.246	38.715	-0.36102	0.2912	0	0.45937	0	18.637	0	0	2.8516	0
0.59854	177.43	912.66	72.885	-0.27315	0	0.26346	-19.713	38.776	-0.61365	0.26863	0	0.46709	0	18.637	0	0	3.2636	0
0.59896	177.75	911.78	72.62	-0.27295	0	0.26343	-19.436	39.201	-1.1667	0.26387	0	0.46728	0	18.663	0	0	3.7861	0
0.59938	178.23	911.85	72.575	-0.27315	0	0.26352	-18.645	39.706	-1.5419	0.2573	0	0.47432	0	18.685	0	0	4.1746	0
0.59979	178.73	910.71	72.681	-0.27288	0	0.26343	-18.576	42.022	-1.8415	0.24901	0	0.47513	0	18.694	0	0	4.1468	0
0.60021	179.08	909.11	72.46	-0.27264	0	0.26341	-20.505	46.563	-1.6395	0.26316	0	0.46981	0	18.702	0	0	3.9866	0
0.60063	179.58	908.67	72.393	-0.27258	0	0.26347	-23.852	51.349	-1.3209	0.26707	0	0.46509	0	18.707	0	0	3.8688	0
0.60104	179.81	907.61	72.392	-0.27248	0	0.26342	-26.715	55.349	-1.5502	0.26893	0	0.46479	0	18.719	0	0	4.371	0
0.60146	180.29	907.16	72.345	-0.27242	0	0.26348	-29.526	57.791	-2.4184	0.26482	0	0.46722	0	18.767	0	0	5.2807	0
0.60188	180.64	906.1	72.431	-0.27224	0	0.26345	-31.127	60.322	-3.5274	0.26327	0	0.4723	0	18.741	0	0	6.2498	0
0.60229	180.97	905.48	72.278	-0.27222	0	0.2635	-32.335	64.667	-3.8482	0.25855	0	0.47493	0	18.732	0	0	7.2524	0
0.60271	181.55	903.71	72.384	-0.2719	0	0.26357	-34.142	70.044	-3.6777	0.25162	0	0.47639	0	18.758	0	0	7.746	0
0.60313	181.97	903.88	72.25	-0.27192	0	0.2635	-38.516	78.77	-3.335	0.2603	0	0.47126	0	18.78	0	0	7.8166	0
0.60355	182.42	902.81	72.007	-0.27178	0	0.26343	-43.318	86.981	-3.0592	0.2648	0	0.46667	0	18.806	0	0	7.5845	0
0.60396	182.98	901.3	72.025	-0.2717	0	0.26342	-46.608	92.791	-3.444	0.2641	0	0.46463	0	18.836	0	0	7.7083	0
0.60438	183.09	900.6	72.047	-0.27157	0	0.26353	-48.148	96.619	-3.7846	0.26227	0	0.46727	0	18.84	0	0	8.3619	0
0.6048	183.57	899.63	71.916	-0.27141	0	0.26352	-48.964	98.291	-4.1043	0.25555	0	0.47263	0	18.809	0	0	9.3054	0
0.60521	183.94	898.73	71.651	-0.27138	0	0.26343	-50.248	104.19	-4.5083	0.2578	0	0.47121	0	18.853	0	0	10.419	0
0.60563	184.13	897.5	71.758	-0.27112	0	0.2635	-53.501	110.85	-4.7713	0.25789	0	0.47041	0	18.874	0	0	11.038	0
0.60605	184.59	896.88	71.451	-0.27108	0	0.26359	-58.686	119.23	-4.8796	0.26403	0	0.46668	0	18.883	0	0	11.341	0
0.60646	185.35	894.93	71.556	-0.27081	0	0.26351	-63.282	126.74	-4.5403	0.26377	0	0.46573	0	18.891	0	0	11.209	0
0.60688	185.52	894.75	71.555	-0.27079	0	0.26348	-66.327	132.45	-4.5215	0.26006	0	0.46769	0	18.896	0	0	11.19	0
0.6073	185.74	893.33	71.292	-0.27063	0	0.2635	-68.156	137.22	-4.5957	0.25889	0	0.4698	0	18.913	0	0	11.745	0
0.60771	186.19	892.45	71.224	-0.27049	0	0.26342	-68.924	144.07	-4.7288	0.26024	0	0.46928	0	18.93	0	0	12.536	0
0.60813	186.61	891.04	71.268	-0.27025	0	0.26353	-70.034	152.03	-4.6983	0.26125	0	0.46929	0	18.886	0	0	13.438	0
0.60855	187	890.76	71.177	-0.27025	0	0.26359	-71.826	162.67	-4.0438	0.26507	0	0.4677	0	18.947	0	0	13.65	0
0.60896	187.41	889	71.153	-0.26999	0	0.2636	-73.915	172.79	-2.8304	0.26621	0	0.46653	0	18.973	0	0	13.169	0
0.60938	187.82	888.46	71.064	-0.27004	0	0.26357	-75.558	180.5	-1.829	0.2617	0	0.46737	0	18.982	0	0	12.231	0
0.6098	188.15	887.39	70.78	-0.26998	0	0.26363	-75.604	189.62	-0.15513	0.26119	0	0.46695	0	18.986	0	0	11.427	0
0.61021	188.6	885.98	70.712	-0.26978	0	0.26358	-74.595	197.63	1.1435	0.25955	0	0.46621	0	18.994	0	0	11.007	0
0.61063	189.01	885	70.713	-0.26969	0	0.26364	-73.729	207.94	2.7481	0.26149	0	0.46616	0	18.964	0	0	11.228	0
0.61105	189.36	882.97	70.71	-0.26934	0	0.26365	-73.986	219.54	4.7061	0.26348	0	0.46504	0	18.976	0	0	11.557	0
0.61146	189.68	882.52	70.512	-0.26942	0	0.26356	-75.976	229.48	5.7311	0.26351	0	0.46497	0	18.998	0	0	11.65	0
0.61188	190.09	880.58	70.444	-0.26916	0	0.26358	-78.881	240.36	6.22	0.26385	0	0.46427	0	19.024	0	0	11.598	0
0.6123	190.31	880.92	70.336	-0.26926	0	0.26367	-82.222	251.15	6.0421	0.26378	0	0.4636	0	19.015	0	0	11.408	0
